<?xml version="1.0" encoding="UTF-8" standalone="no"?>
<!-- Uploaded to: SVG Repo, www.svgrepo.com, Generator: SVG Repo Mixer Tools -->

<svg
   height="800px"
   width="800px"
   version="1.1"
   id="Layer_1"
   viewBox="0 0 291.764 291.764"
   xml:space="preserve"
   sodipodi:docname="amex.svg"
   inkscape:version="1.3.1 (9b9bdc1480, 2023-11-25, custom)"
   xmlns:inkscape="http://www.inkscape.org/namespaces/inkscape"
   xmlns:sodipodi="http://sodipodi.sourceforge.net/DTD/sodipodi-0.dtd"
   xmlns="http://www.w3.org/2000/svg"
   xmlns:svg="http://www.w3.org/2000/svg"><defs
   id="defs2" /><sodipodi:namedview
   id="namedview2"
   pagecolor="#ffffff"
   bordercolor="#000000"
   borderopacity="0.25"
   inkscape:showpageshadow="2"
   inkscape:pageopacity="0.0"
   inkscape:pagecheckerboard="0"
   inkscape:deskcolor="#d1d1d1"
   inkscape:zoom="0.295"
   inkscape:cx="398.30508"
   inkscape:cy="398.30508"
   inkscape:window-width="2000"
   inkscape:window-height="1250"
   inkscape:window-x="58"
   inkscape:window-y="32"
   inkscape:window-maximized="1"
   inkscape:current-layer="g2" />
<g
   id="g2">
	<path
   style="fill:#ffffff;fill-opacity:1;stroke:#26a6d1;stroke-width:1.14103;stroke-dasharray:none;stroke-opacity:1"
   d="M 19.358842,45.974097 H 272.48303 c 9.98044,0 18.08001,8.169189 18.08001,18.244423 v 173.23902 c 0,10.06623 -8.09957,18.23542 -18.08001,18.23542 H 19.358842 C 9.3694728,255.69396 1.2788269,247.52377 1.2788269,237.45854 V 64.21852 c 0,-10.075234 8.0995694,-18.244423 18.0800151,-18.244423 z"
   id="path1" />
	<path
   style="fill:#26a6d1;fill-opacity:1"
   d="M47.047,113.966l-28.812,63.76h34.492l4.276-10.166h9.774l4.276,10.166h37.966v-7.759l3.383,7.759   h19.639l3.383-7.923v7.923h78.959l9.601-9.902l8.99,9.902l40.555,0.082l-28.903-31.784l28.903-32.058h-39.926l-9.346,9.719   l-8.707-9.719h-85.897l-7.376,16.457l-7.549-16.457h-34.42v7.495l-3.829-7.495C76.479,113.966,47.047,113.966,47.047,113.966z    M53.721,123.02h16.813l19.111,43.236V123.02h18.418l14.761,31l13.604-31h18.326v45.752h-11.151l-0.091-35.851l-16.257,35.851   h-9.975l-16.348-35.851v35.851h-22.94l-4.349-10.257H50.147l-4.34,10.248H33.516C33.516,168.763,53.721,123.02,53.721,123.02z    M164.956,123.02h45.342L224.166,138l14.315-14.98h13.868l-21.071,22.995l21.071,22.73h-14.497l-13.868-15.154l-14.388,15.154   h-44.64L164.956,123.02L164.956,123.02z M61.9,130.761l-7.741,18.272h15.473L61.9,130.761z M176.153,132.493v8.352h24.736v9.309   h-24.736v9.118h27.745l12.892-13.43l-12.345-13.357h-28.292L176.153,132.493z"
   id="path2" />
</g>
</svg>
