<?xml version="1.0" encoding="UTF-8" standalone="no"?>
<!-- Uploaded to: SVG Repo, www.svgrepo.com, Generator: SVG Repo Mixer Tools -->

<svg
   fill="#000000"
   width="800px"
   height="800px"
   viewBox="0 0 32 32"
   version="1.1"
   id="svg1"
   sodipodi:docname="envelope-svgrepo-com.svg"
   inkscape:version="1.3.1 (9b9bdc1480, 2023-11-25, custom)"
   xmlns:inkscape="http://www.inkscape.org/namespaces/inkscape"
   xmlns:sodipodi="http://sodipodi.sourceforge.net/DTD/sodipodi-0.dtd"
   xmlns="http://www.w3.org/2000/svg"
   xmlns:svg="http://www.w3.org/2000/svg">
  <defs
     id="defs1" />
  <sodipodi:namedview
     id="namedview1"
     pagecolor="#ffffff"
     bordercolor="#000000"
     borderopacity="0.25"
     inkscape:showpageshadow="2"
     inkscape:pageopacity="0.0"
     inkscape:pagecheckerboard="0"
     inkscape:deskcolor="#d1d1d1"
     inkscape:zoom="0.295"
     inkscape:cx="398.30508"
     inkscape:cy="398.30508"
     inkscape:window-width="2000"
     inkscape:window-height="1250"
     inkscape:window-x="58"
     inkscape:window-y="32"
     inkscape:window-maximized="1"
     inkscape:current-layer="svg1" />
  <title
     id="title1">envelope</title>
  <path
     d="M28 3.75h-24c-1.794 0.002-3.248 1.456-3.25 3.25v18c0.002 1.794 1.456 3.248 3.25 3.25h24c1.794-0.001 3.249-1.456 3.25-3.25v-18c-0.002-1.794-1.456-3.248-3.25-3.25h-0zM4 6.25h24c0.219 0.001 0.415 0.097 0.549 0.248l0.001 0.001-12.55 8.964-12.55-8.964c0.135-0.152 0.331-0.248 0.549-0.249h0zM28 25.75h-24c-0.414-0-0.75-0.336-0.75-0.75v-15.571l12.023 8.588c0.031 0.018 0.069 0.037 0.108 0.054l0.008 0.003c0.031 0.018 0.068 0.037 0.107 0.054l0.008 0.003c0.145 0.070 0.315 0.113 0.494 0.118l0.002 0h0.002c0.181-0.005 0.351-0.048 0.503-0.121l-0.008 0.003c0.046-0.020 0.084-0.039 0.12-0.060l-0.006 0.003c0.047-0.020 0.085-0.040 0.121-0.061l-0.006 0.003 12.023-8.588v15.571c-0 0.414-0.336 0.75-0.75 0.75v0z"
     id="path1"
     style="fill:#ffffff" />
</svg>
